ModelForces
version=1
nRows=5
nColumns=94
inDegrees=yes

This file contains the forces exerted on a model during a simulation.

A force is a generalized force, meaning that it can be either a force (N) or a torque (Nm).

Units are S.I. units (second, meters, Newtons, ...)
Angles are in degrees.

endheader 
time	addbrev_l	addlong_l	addmagDist_l	addmagIsch_l	addmagMid_l	addmagProx_l	bflh_l	bfsh_l	edl_l	ehl_l	fdl_l	fhl_l	gaslat_l	gasmed_l	glmax1_l	glmax2_l	glmax3_l	glmed1_l	glmed2_l	glmed3_l	glmin1_l	glmin2_l	glmin3_l	grac_l	iliacus_l	perbrev_l	perlong_l	piri_l	psoas_l	recfem_l	sart_l	semimem_l	semiten_l	soleus_l	tfl_l	tibant_l	tibpost_l	vasint_l	vaslat_l	vasmed_l	addbrev_r	addlong_r	addmagDist_r	addmagIsch_r	addmagMid_r	addmagProx_r	bflh_r	bfsh_r	edl_r	ehl_r	fdl_r	fhl_r	gaslat_r	gasmed_r	glmax1_r	glmax2_r	glmax3_r	glmed1_r	glmed2_r	glmed3_r	glmin1_r	glmin2_r	glmin3_r	grac_r	iliacus_r	perbrev_r	perlong_r	piri_r	psoas_r	recfem_r	sart_r	semimem_r	semiten_r	soleus_r	tfl_r	tibant_r	tibpost_r	vasint_r	vaslat_r	vasmed_r	lumbar_extension	lumbar_bending	lumbar_rotation	arm_flex_l	arm_add_l	arm_rot_l	arm_flex_r	arm_add_r	arm_rot_r	elbow_flex_l	elbow_flex_r	pro_sup_l	pro_sup_r	
         10.60000000	         10.10583339	         12.60190179	          2.61525535	          0.04898101	          9.87958800	         35.73968748	         98.32644051	         85.01126046	        114.12748587	         31.62727552	          4.64727324	         12.07042924	         38.11698170	         92.09299081	          9.11484996	         12.79377342	         51.73018282	         11.69949190	          9.52396070	         11.67220278	          3.98396252	          5.33963076	          5.48914116	          7.81318735	        381.54025031	         58.55682672	         87.57170771	        344.19335619	        478.68272186	        325.09723268	         81.79904039	        132.15720283	         23.82790661	        107.25766811	         69.68154169	        254.47715139	         19.15154797	         16.38410043	         48.43824581	         24.06551325	        275.67214102	        489.54424874	        175.73417242	         16.72694774	        374.21308611	        252.10086462	        236.65441334	         42.98436679	        293.50232028	          0.00111892	         10.72997828	         19.33835071	          6.71396652	         19.01570689	         12.49639390	        195.99471605	        356.16314363	          9.51312274	          7.69606221	          8.91433329	          2.94585160	         35.35069518	         29.12466070	         43.35268536	        257.32963591	          0.00356134	        155.90748645	        213.75635972	        634.24595001	       2446.55929176	         36.35192824	         91.41307439	        101.69602184	        161.91998829	         42.57315368	        169.38718480	         31.87676492	         36.23395020	        104.21428352	         53.08076953	       -205.59441592	        -43.98487053	        -60.17841565	        -41.98781653	        -93.58820117	         72.20360350	         88.11184876	        136.71695626	        133.53228820	       -104.25216195	         13.03490313	         11.88229226	          1.38432367	
         10.61000000	          9.14364943	          6.68651656	          2.56179632	          0.55759246	          8.87786097	         30.50690449	         89.41807261	          9.89924093	        108.39007657	          0.00503759	          5.17266214	         12.09733129	         35.38614220	         85.97449054	          9.39099430	         12.96347441	         45.36460590	         14.19502165	         11.38743146	         14.89172549	          4.83390825	         25.49314288	         96.89289477	          5.15585173	        498.63704865	         51.22502230	         81.59354114	        547.72071286	        774.99163768	        381.12253656	        221.56401208	        118.84428586	         27.34769322	        119.42919037	        117.99876867	        228.95407665	         19.66020511	         17.05595601	         50.30039886	         24.95510434	        212.27697515	        338.12517374	        150.12137881	         14.54152604	        311.07102991	        197.18595535	        259.19993280	         35.68517287	        264.84070509	         28.40068896	          3.04390869	         16.79650829	          8.09187516	         21.39452648	         11.18256034	        172.68433237	        307.39374152	         10.53992318	          8.41942528	          9.86384208	          3.22949851	         31.94063999	         27.88239892	         37.62035289	        224.69032568	         99.84604315	        147.81764295	        157.45589379	        652.01979021	       2222.36432215	         26.47576684	        109.43381287	        102.57718135	        214.83774570	         27.63178938	        209.88614085	         30.31796152	         29.38846638	         84.55020745	         43.41398709	       -229.05598456	        -70.05405955	        -37.03158454	          4.21899352	       -106.60020249	         86.51376798	         28.45605758	        129.39684931	        136.07252357	       -107.48019582	         47.49752726	         18.02090508	          1.67513975	
         10.62000000	          9.10176426	         82.28597985	          2.93258283	          1.76317644	          8.98300949	         27.27878462	         86.08418212	        311.13612408	         87.31066916	         28.33397022	          2.06904151	         11.21687922	         29.43347601	         73.34680641	          9.10857107	         12.93705653	         41.10126125	         12.15542603	          9.45286520	         12.18152819	          4.16757361	         21.05929946	         82.09596147	         37.69561309	        506.08838572	         52.85334427	         74.16831415	        453.31823282	        949.38911033	        478.33794876	        170.70102051	        110.29420632	          0.00413133	        121.88909086	        113.73187875	        234.39077337	          9.28457065	         19.01494699	         55.96985833	         27.54668066	        158.43744844	        249.12723173	        127.77924757	         12.53745469	        257.02747242	        151.77934351	        268.37109058	         28.33908925	        235.38357377	         35.28013781	         16.58071917	         14.68768681	         11.66841527	         30.49173726	         10.18937571	        153.96057857	        266.73760021	         11.59258613	          9.25173573	         11.02741751	          3.55034615	         29.29218991	         29.71898910	         31.57183736	        186.75705502	         94.28368619	        131.77390526	        138.10649094	        567.12079210	       1967.93588120	         47.54100121	        108.01266834	         93.06320291	        246.08047091	         19.52089825	        243.09676814	          3.84524897	         24.43855765	         70.60923979	         36.34156244	       -246.68695406	       -127.20021946	        -31.51016798	        -36.14606951	        -46.54824386	         15.42583976	        -16.50995077	         96.49706362	        137.70780810	        -39.80872546	         73.41818784	        -21.00012683	          2.13888778	
         10.63000000	          8.48022107	         74.64075661	          2.94777926	          2.65533225	          8.48835385	         23.90486882	         77.79610447	        233.46000630	         70.50215247	          0.01830059	          8.78702718	         11.34880491	         32.37903421	         66.60723580	          9.35450304	         13.07825034	         36.27411267	         12.08867591	          9.28208317	         10.44493986	          4.14940311	         16.61885898	         58.31803035	         33.94186764	         83.67463447	         27.33294037	         66.21150858	        438.19445939	        284.89205075	          0.00734569	        197.35467579	        198.10442607	        289.32502491	        117.96696087	         69.27679603	        182.48517365	         32.05039832	         19.37584289	         57.03454629	         28.01848057	        112.06982698	        153.19007552	        106.93127622	         10.63815054	        204.60890905	        111.88235719	        273.68110218	         26.23087629	        182.76293280	         27.48039655	         13.03335315	         14.08690765	         15.26542437	         44.25066465	         11.22357684	        137.27101991	        229.01328901	         12.79767628	         10.22086349	         12.34164972	          3.87886252	         27.34670306	         32.04389124	         28.44617289	        106.81171969	         74.71669466	        115.24717622	        143.95306855	        360.21938692	       1668.72367813	         39.50931891	        116.59152809	         93.29399023	        236.25890031	         14.45710768	        195.87907841	         86.32150093	         10.16879455	         27.18337072	         16.00680331	       -259.93629451	        -89.61089641	        -55.53240147	        -56.25541501	          3.11832744	        -30.42078280	        -50.44173869	         35.06047061	         68.35905686	          9.77573131	         92.66060462	        -52.52266692	          0.99079320	
         10.64000000	          7.70058466	         73.49220178	          2.87866249	          2.58390938	          7.08169360	         20.47114137	         76.87241650	        226.16581991	         58.48482274	         26.05838462	          6.71014175	         10.58345530	         27.76648672	         56.91851753	          8.89991879	         12.38194228	         28.82559334	         12.15608985	          9.23095953	         49.62643632	          4.30942997	         36.81892193	        117.46877617	         34.73970330	        704.78260497	         68.92111218	         52.39394431	        375.46089381	        964.90750947	        380.05394523	        169.27564094	        146.10111050	         94.12480832	        108.09374995	        104.53392004	        152.46605930	         25.63850689	         16.14899939	         47.49659493	         23.75574679	         87.14293572	        112.40506500	         87.74545303	          8.71810229	        161.70024300	         84.86524408	        261.20553898	         30.37868524	        147.23347411	         26.50569477	          9.55393259	         12.89420379	         18.03027543	         60.04663633	         11.47642234	        118.45842585	        189.52414862	         14.13064590	         11.06344086	         13.18065945	          4.34411309	         25.41153961	         31.88259953	         30.07191231	        176.73938571	         68.77141487	        104.67471531	        167.19763705	        388.54471351	       1435.89365966	         35.97018079	        118.94210002	         88.72332110	        186.95436596	         11.12019395	        188.12061749	         62.62779115	        198.81629148	        589.39135092	        301.99465737	       -244.12995445	       -114.03224830	         -8.91584151	        -86.83926962	         40.21391436	        -49.32356488	        -76.19247417	        -11.70933264	         12.02181324	        -16.10679125	        106.96520267	         -1.72818806	         -0.43271436	
